<mxfile host="Electron" modified="2024-06-10T17:45:00.371Z" agent="Mozilla/5.0 (Windows NT 10.0; Win64; x64) AppleWebKit/537.36 (KHTML, like Gecko) draw.io/22.0.3 Chrome/114.0.5735.289 Electron/25.8.4 Safari/537.36" etag="HSGnPO6srUR6BJ5NRbgZ" version="22.0.3" type="device">
  <diagram id="C5RBs43oDa-KdzZeNtuy" name="Page-1">
    <mxGraphModel dx="2222" dy="703" grid="1" gridSize="10" guides="1" tooltips="1" connect="1" arrows="1" fold="1" page="1" pageScale="1" pageWidth="827" pageHeight="1169" math="0" shadow="0">
      <root>
        <mxCell id="WIyWlLk6GJQsqaUBKTNV-0" />
        <mxCell id="WIyWlLk6GJQsqaUBKTNV-1" parent="WIyWlLk6GJQsqaUBKTNV-0" />
        <mxCell id="WIyWlLk6GJQsqaUBKTNV-2" value="" style="rounded=0;html=1;jettySize=auto;orthogonalLoop=1;fontSize=11;endArrow=block;endFill=0;endSize=8;strokeWidth=1;shadow=0;labelBackgroundColor=none;edgeStyle=orthogonalEdgeStyle;" parent="WIyWlLk6GJQsqaUBKTNV-1" source="WIyWlLk6GJQsqaUBKTNV-3" target="WIyWlLk6GJQsqaUBKTNV-6" edge="1">
          <mxGeometry relative="1" as="geometry" />
        </mxCell>
        <mxCell id="WIyWlLk6GJQsqaUBKTNV-3" value="Get&amp;nbsp; - user input for currency to be converted from" style="rounded=1;whiteSpace=wrap;html=1;fontSize=12;glass=0;strokeWidth=1;shadow=0;" parent="WIyWlLk6GJQsqaUBKTNV-1" vertex="1">
          <mxGeometry x="160" y="80" width="170" height="70" as="geometry" />
        </mxCell>
        <mxCell id="WIyWlLk6GJQsqaUBKTNV-5" value="No" style="edgeStyle=orthogonalEdgeStyle;rounded=0;html=1;jettySize=auto;orthogonalLoop=1;fontSize=11;endArrow=block;endFill=0;endSize=8;strokeWidth=1;shadow=0;labelBackgroundColor=none;" parent="WIyWlLk6GJQsqaUBKTNV-1" source="WIyWlLk6GJQsqaUBKTNV-6" target="WIyWlLk6GJQsqaUBKTNV-7" edge="1">
          <mxGeometry y="10" relative="1" as="geometry">
            <mxPoint as="offset" />
          </mxGeometry>
        </mxCell>
        <mxCell id="WIyWlLk6GJQsqaUBKTNV-6" value="Check from currency validity" style="rhombus;whiteSpace=wrap;html=1;shadow=0;fontFamily=Helvetica;fontSize=12;align=center;strokeWidth=1;spacing=6;spacingTop=-4;" parent="WIyWlLk6GJQsqaUBKTNV-1" vertex="1">
          <mxGeometry x="157.5" y="230" width="175" height="140" as="geometry" />
        </mxCell>
        <mxCell id="WIyWlLk6GJQsqaUBKTNV-7" value="Send error" style="rounded=1;whiteSpace=wrap;html=1;fontSize=12;glass=0;strokeWidth=1;shadow=0;" parent="WIyWlLk6GJQsqaUBKTNV-1" vertex="1">
          <mxGeometry x="620" y="170" width="120" height="40" as="geometry" />
        </mxCell>
        <mxCell id="Xh7_2cff-gdu1n1zJMgz-0" value="" style="endArrow=classic;html=1;rounded=0;exitX=0.5;exitY=0;exitDx=0;exitDy=0;entryX=0.5;entryY=0;entryDx=0;entryDy=0;" edge="1" parent="WIyWlLk6GJQsqaUBKTNV-1" source="WIyWlLk6GJQsqaUBKTNV-7" target="WIyWlLk6GJQsqaUBKTNV-3">
          <mxGeometry width="50" height="50" relative="1" as="geometry">
            <mxPoint x="400" y="160" as="sourcePoint" />
            <mxPoint x="450" y="110" as="targetPoint" />
            <Array as="points">
              <mxPoint x="680" y="40" />
              <mxPoint x="245" y="40" />
            </Array>
          </mxGeometry>
        </mxCell>
        <mxCell id="Xh7_2cff-gdu1n1zJMgz-1" value="" style="rounded=0;html=1;jettySize=auto;orthogonalLoop=1;fontSize=11;endArrow=block;endFill=0;endSize=8;strokeWidth=1;shadow=0;labelBackgroundColor=none;edgeStyle=orthogonalEdgeStyle;" edge="1" parent="WIyWlLk6GJQsqaUBKTNV-1">
          <mxGeometry relative="1" as="geometry">
            <mxPoint x="244.5" y="370" as="sourcePoint" />
            <mxPoint x="245" y="520" as="targetPoint" />
          </mxGeometry>
        </mxCell>
        <mxCell id="Xh7_2cff-gdu1n1zJMgz-2" value="Get&amp;nbsp; - user input for currency to be converted to" style="rounded=1;whiteSpace=wrap;html=1;fontSize=12;glass=0;strokeWidth=1;shadow=0;" vertex="1" parent="WIyWlLk6GJQsqaUBKTNV-1">
          <mxGeometry x="162.5" y="520" width="170" height="70" as="geometry" />
        </mxCell>
        <mxCell id="Xh7_2cff-gdu1n1zJMgz-3" value="" style="rounded=0;html=1;jettySize=auto;orthogonalLoop=1;fontSize=11;endArrow=block;endFill=0;endSize=8;strokeWidth=1;shadow=0;labelBackgroundColor=none;edgeStyle=orthogonalEdgeStyle;" edge="1" parent="WIyWlLk6GJQsqaUBKTNV-1" target="Xh7_2cff-gdu1n1zJMgz-4">
          <mxGeometry relative="1" as="geometry">
            <mxPoint x="245" y="590" as="sourcePoint" />
          </mxGeometry>
        </mxCell>
        <mxCell id="Xh7_2cff-gdu1n1zJMgz-4" value="Check to currency validity" style="rhombus;whiteSpace=wrap;html=1;shadow=0;fontFamily=Helvetica;fontSize=12;align=center;strokeWidth=1;spacing=6;spacingTop=-4;" vertex="1" parent="WIyWlLk6GJQsqaUBKTNV-1">
          <mxGeometry x="157.5" y="670" width="175" height="140" as="geometry" />
        </mxCell>
        <mxCell id="Xh7_2cff-gdu1n1zJMgz-5" value="No" style="edgeStyle=orthogonalEdgeStyle;rounded=0;html=1;jettySize=auto;orthogonalLoop=1;fontSize=11;endArrow=block;endFill=0;endSize=8;strokeWidth=1;shadow=0;labelBackgroundColor=none;" edge="1" parent="WIyWlLk6GJQsqaUBKTNV-1" target="Xh7_2cff-gdu1n1zJMgz-6">
          <mxGeometry y="10" relative="1" as="geometry">
            <mxPoint as="offset" />
            <mxPoint x="333" y="740" as="sourcePoint" />
          </mxGeometry>
        </mxCell>
        <mxCell id="Xh7_2cff-gdu1n1zJMgz-6" value="Send error" style="rounded=1;whiteSpace=wrap;html=1;fontSize=12;glass=0;strokeWidth=1;shadow=0;" vertex="1" parent="WIyWlLk6GJQsqaUBKTNV-1">
          <mxGeometry x="620" y="610" width="120" height="40" as="geometry" />
        </mxCell>
        <mxCell id="Xh7_2cff-gdu1n1zJMgz-8" value="" style="endArrow=classic;html=1;rounded=0;exitX=0.5;exitY=0;exitDx=0;exitDy=0;entryX=1;entryY=0.5;entryDx=0;entryDy=0;" edge="1" parent="WIyWlLk6GJQsqaUBKTNV-1" source="Xh7_2cff-gdu1n1zJMgz-6" target="Xh7_2cff-gdu1n1zJMgz-2">
          <mxGeometry width="50" height="50" relative="1" as="geometry">
            <mxPoint x="310" y="530" as="sourcePoint" />
            <mxPoint x="360" y="480" as="targetPoint" />
            <Array as="points">
              <mxPoint x="680" y="555" />
            </Array>
          </mxGeometry>
        </mxCell>
        <mxCell id="Xh7_2cff-gdu1n1zJMgz-9" value="Yes" style="text;html=1;strokeColor=none;fillColor=none;align=center;verticalAlign=middle;whiteSpace=wrap;rounded=0;" vertex="1" parent="WIyWlLk6GJQsqaUBKTNV-1">
          <mxGeometry x="250" y="420" width="60" height="30" as="geometry" />
        </mxCell>
        <mxCell id="Xh7_2cff-gdu1n1zJMgz-10" value="Yes" style="text;html=1;strokeColor=none;fillColor=none;align=center;verticalAlign=middle;whiteSpace=wrap;rounded=0;" vertex="1" parent="WIyWlLk6GJQsqaUBKTNV-1">
          <mxGeometry x="250" y="840" width="60" height="30" as="geometry" />
        </mxCell>
        <mxCell id="Xh7_2cff-gdu1n1zJMgz-12" value="" style="rounded=0;html=1;jettySize=auto;orthogonalLoop=1;fontSize=11;endArrow=block;endFill=0;endSize=8;strokeWidth=1;shadow=0;labelBackgroundColor=none;edgeStyle=orthogonalEdgeStyle;" edge="1" parent="WIyWlLk6GJQsqaUBKTNV-1">
          <mxGeometry relative="1" as="geometry">
            <mxPoint x="244.5" y="810" as="sourcePoint" />
            <mxPoint x="244.5" y="890" as="targetPoint" />
          </mxGeometry>
        </mxCell>
        <mxCell id="Xh7_2cff-gdu1n1zJMgz-13" value="" style="endArrow=none;html=1;rounded=0;" edge="1" parent="WIyWlLk6GJQsqaUBKTNV-1">
          <mxGeometry width="50" height="50" relative="1" as="geometry">
            <mxPoint x="-60" y="1080" as="sourcePoint" />
            <mxPoint x="500" y="1080" as="targetPoint" />
          </mxGeometry>
        </mxCell>
        <mxCell id="Xh7_2cff-gdu1n1zJMgz-14" value="" style="endArrow=classic;html=1;rounded=0;" edge="1" parent="WIyWlLk6GJQsqaUBKTNV-1">
          <mxGeometry width="50" height="50" relative="1" as="geometry">
            <mxPoint x="-60" y="1080" as="sourcePoint" />
            <mxPoint x="-60" y="1180" as="targetPoint" />
          </mxGeometry>
        </mxCell>
        <mxCell id="Xh7_2cff-gdu1n1zJMgz-15" value="Amount is greater than zero" style="ellipse;whiteSpace=wrap;html=1;" vertex="1" parent="WIyWlLk6GJQsqaUBKTNV-1">
          <mxGeometry x="-120" y="1180" width="120" height="80" as="geometry" />
        </mxCell>
        <mxCell id="Xh7_2cff-gdu1n1zJMgz-16" value="Get user input for amound to be converted" style="rounded=1;whiteSpace=wrap;html=1;fontSize=12;glass=0;strokeWidth=1;shadow=0;" vertex="1" parent="WIyWlLk6GJQsqaUBKTNV-1">
          <mxGeometry x="162.5" y="890" width="170" height="70" as="geometry" />
        </mxCell>
        <mxCell id="Xh7_2cff-gdu1n1zJMgz-17" value="" style="endArrow=classic;html=1;rounded=0;exitX=0.468;exitY=1.014;exitDx=0;exitDy=0;exitPerimeter=0;" edge="1" parent="WIyWlLk6GJQsqaUBKTNV-1" source="Xh7_2cff-gdu1n1zJMgz-16">
          <mxGeometry width="50" height="50" relative="1" as="geometry">
            <mxPoint x="310" y="960" as="sourcePoint" />
            <mxPoint x="242" y="1080" as="targetPoint" />
          </mxGeometry>
        </mxCell>
        <mxCell id="Xh7_2cff-gdu1n1zJMgz-18" value="Validation" style="text;html=1;strokeColor=none;fillColor=none;align=center;verticalAlign=middle;whiteSpace=wrap;rounded=0;" vertex="1" parent="WIyWlLk6GJQsqaUBKTNV-1">
          <mxGeometry x="270" y="1000" width="60" height="30" as="geometry" />
        </mxCell>
        <mxCell id="Xh7_2cff-gdu1n1zJMgz-19" value="Amount is equal to Zero" style="ellipse;whiteSpace=wrap;html=1;" vertex="1" parent="WIyWlLk6GJQsqaUBKTNV-1">
          <mxGeometry x="180" y="1180" width="120" height="80" as="geometry" />
        </mxCell>
        <mxCell id="Xh7_2cff-gdu1n1zJMgz-20" value="Amount is less than zero" style="ellipse;whiteSpace=wrap;html=1;" vertex="1" parent="WIyWlLk6GJQsqaUBKTNV-1">
          <mxGeometry x="450" y="1180" width="120" height="80" as="geometry" />
        </mxCell>
        <mxCell id="Xh7_2cff-gdu1n1zJMgz-21" value="" style="endArrow=classic;html=1;rounded=0;" edge="1" parent="WIyWlLk6GJQsqaUBKTNV-1">
          <mxGeometry width="50" height="50" relative="1" as="geometry">
            <mxPoint x="500" y="1080" as="sourcePoint" />
            <mxPoint x="500" y="1180" as="targetPoint" />
          </mxGeometry>
        </mxCell>
        <mxCell id="Xh7_2cff-gdu1n1zJMgz-22" value="" style="endArrow=classic;html=1;rounded=0;" edge="1" parent="WIyWlLk6GJQsqaUBKTNV-1">
          <mxGeometry width="50" height="50" relative="1" as="geometry">
            <mxPoint x="239.57999999999998" y="1080" as="sourcePoint" />
            <mxPoint x="239.57999999999998" y="1180" as="targetPoint" />
          </mxGeometry>
        </mxCell>
        <mxCell id="Xh7_2cff-gdu1n1zJMgz-23" value="" style="endArrow=classic;html=1;rounded=0;" edge="1" parent="WIyWlLk6GJQsqaUBKTNV-1">
          <mxGeometry width="50" height="50" relative="1" as="geometry">
            <mxPoint x="-60.5" y="1260" as="sourcePoint" />
            <mxPoint x="-60.5" y="1360" as="targetPoint" />
          </mxGeometry>
        </mxCell>
        <mxCell id="Xh7_2cff-gdu1n1zJMgz-25" value="Get request&amp;nbsp;" style="rounded=1;whiteSpace=wrap;html=1;" vertex="1" parent="WIyWlLk6GJQsqaUBKTNV-1">
          <mxGeometry x="-120" y="1360" width="120" height="60" as="geometry" />
        </mxCell>
        <mxCell id="Xh7_2cff-gdu1n1zJMgz-26" value="" style="endArrow=classic;html=1;rounded=0;" edge="1" parent="WIyWlLk6GJQsqaUBKTNV-1">
          <mxGeometry width="50" height="50" relative="1" as="geometry">
            <mxPoint x="-60.5" y="1420" as="sourcePoint" />
            <mxPoint x="-60.5" y="1520" as="targetPoint" />
          </mxGeometry>
        </mxCell>
        <mxCell id="Xh7_2cff-gdu1n1zJMgz-27" value="Run API" style="rounded=1;whiteSpace=wrap;html=1;" vertex="1" parent="WIyWlLk6GJQsqaUBKTNV-1">
          <mxGeometry x="-120" y="1520" width="120" height="60" as="geometry" />
        </mxCell>
        <mxCell id="Xh7_2cff-gdu1n1zJMgz-28" value="" style="endArrow=classic;html=1;rounded=0;" edge="1" parent="WIyWlLk6GJQsqaUBKTNV-1">
          <mxGeometry width="50" height="50" relative="1" as="geometry">
            <mxPoint x="-60.5" y="1580" as="sourcePoint" />
            <mxPoint x="-60.5" y="1680" as="targetPoint" />
          </mxGeometry>
        </mxCell>
        <mxCell id="Xh7_2cff-gdu1n1zJMgz-29" value="Format the output" style="rounded=1;whiteSpace=wrap;html=1;" vertex="1" parent="WIyWlLk6GJQsqaUBKTNV-1">
          <mxGeometry x="-120" y="1680" width="120" height="60" as="geometry" />
        </mxCell>
        <mxCell id="Xh7_2cff-gdu1n1zJMgz-30" value="" style="endArrow=classic;html=1;rounded=0;" edge="1" parent="WIyWlLk6GJQsqaUBKTNV-1">
          <mxGeometry width="50" height="50" relative="1" as="geometry">
            <mxPoint x="239.5" y="1260" as="sourcePoint" />
            <mxPoint x="239.5" y="1360" as="targetPoint" />
          </mxGeometry>
        </mxCell>
        <mxCell id="Xh7_2cff-gdu1n1zJMgz-31" value="Retrun conversion a zero" style="rounded=1;whiteSpace=wrap;html=1;" vertex="1" parent="WIyWlLk6GJQsqaUBKTNV-1">
          <mxGeometry x="180" y="1360" width="120" height="60" as="geometry" />
        </mxCell>
        <mxCell id="Xh7_2cff-gdu1n1zJMgz-32" value="" style="endArrow=classic;html=1;rounded=0;" edge="1" parent="WIyWlLk6GJQsqaUBKTNV-1">
          <mxGeometry width="50" height="50" relative="1" as="geometry">
            <mxPoint x="509.5" y="1260" as="sourcePoint" />
            <mxPoint x="509.5" y="1360" as="targetPoint" />
          </mxGeometry>
        </mxCell>
        <mxCell id="Xh7_2cff-gdu1n1zJMgz-33" value="Error" style="rounded=1;whiteSpace=wrap;html=1;" vertex="1" parent="WIyWlLk6GJQsqaUBKTNV-1">
          <mxGeometry x="450" y="1360" width="120" height="60" as="geometry" />
        </mxCell>
        <mxCell id="Xh7_2cff-gdu1n1zJMgz-34" value="" style="endArrow=classic;html=1;rounded=0;exitX=1;exitY=0.5;exitDx=0;exitDy=0;entryX=1;entryY=0.5;entryDx=0;entryDy=0;" edge="1" parent="WIyWlLk6GJQsqaUBKTNV-1" source="Xh7_2cff-gdu1n1zJMgz-33" target="Xh7_2cff-gdu1n1zJMgz-16">
          <mxGeometry width="50" height="50" relative="1" as="geometry">
            <mxPoint x="480" y="1170" as="sourcePoint" />
            <mxPoint x="530" y="1120" as="targetPoint" />
            <Array as="points">
              <mxPoint x="680" y="1390" />
              <mxPoint x="680" y="925" />
            </Array>
          </mxGeometry>
        </mxCell>
      </root>
    </mxGraphModel>
  </diagram>
</mxfile>
